<svg width="103" height="104" viewBox="0 0 103 104" fill="none" xmlns="http://www.w3.org/2000/svg">
<path d="M73.2938 102.115C73.2716 102.432 73.4139 102.662 73.6702 102.827C73.6717 102.828 73.6732 102.828 73.6747 102.828C74.1489 103.133 75.0143 103.222 75.9598 103.247C76.0813 103.25 76.1894 103.254 76.2858 103.262C76.311 103.263 76.3361 103.265 76.3613 103.267C76.3806 103.269 76.4014 103.27 76.4191 103.272C77.3512 103.36 77.2327 103.632 78.9947 103.907C81.0041 104.221 81.7925 103.658 81.9318 103.387C82.0488 103.157 81.2012 102.825 80.2543 102.449C80.2083 102.432 80.1624 102.413 80.1164 102.395C79.9905 102.345 79.863 102.293 79.7371 102.243C78.6109 101.78 77.5068 101.248 77.3053 100.066C77.0919 98.8135 78.2404 95.4384 78.2404 95.4384L75.0617 94.8695C75.0617 94.8695 74.4971 98.4421 74.217 99.5475C74.0659 100.139 73.7591 100.594 73.5635 101.095C73.5502 101.13 73.5369 101.166 73.5235 101.201C73.4183 101.494 73.3146 101.797 73.2938 102.115Z" fill="#E49963"/>
<path d="M73.2938 102.115C73.2716 102.432 73.4139 102.662 73.6702 102.827C73.6717 102.828 73.6732 102.828 73.6747 102.828C74.183 103.107 75.0336 103.203 75.9583 103.241C76.0798 103.247 76.188 103.253 76.2858 103.262C76.311 103.263 76.3361 103.265 76.3613 103.268C76.3806 103.269 76.4014 103.27 76.4191 103.272C77.3512 103.36 77.2327 103.632 78.9947 103.907C81.0041 104.221 81.7925 103.658 81.9318 103.387C82.0488 103.157 81.2012 102.825 80.2543 102.45C79.9757 102.535 78.6479 102.892 77.1349 102.494C75.8042 102.146 74.5119 101.385 73.565 101.094C73.5517 101.129 73.5383 101.164 73.525 101.2C73.4183 101.494 73.3146 101.797 73.2938 102.115Z" fill="#233862"/>
<path d="M94.3293 100.223C94.5071 101.11 95.7786 100.961 97.1997 100.616C98.6193 100.271 98.283 100.681 100.304 100.458C102.326 100.236 102.938 99.4856 103 99.1879C103.055 98.9226 102.056 98.8297 100.984 98.7059C100.85 98.6912 100.715 98.675 100.58 98.6573C99.3707 98.507 98.4845 97.7302 97.3864 97.0921C96.3461 96.4878 94.7931 94.028 94.7931 94.028L92.0205 94.2461C92.0205 94.2461 93.4757 96.4436 94.0374 97.3986C94.3678 97.9602 94.35 98.703 94.31 99.2778C94.2863 99.5917 94.2656 99.91 94.3293 100.223Z" fill="#E49963"/>
<path d="M97.1984 100.617C98.6181 100.273 98.2817 100.682 100.303 100.46C102.324 100.237 102.936 99.487 102.999 99.1893C103.053 98.924 102.055 98.8311 100.983 98.7073L100.973 98.728C100.973 98.728 99.7606 99.5828 98.0787 99.6226C96.7079 99.655 95.2557 99.2645 94.3088 99.2807C94.288 99.5931 94.2673 99.9115 94.3295 100.224C94.5073 101.11 95.7788 100.962 97.1984 100.617Z" fill="#233862"/>
<path d="M88.1618 59.7317C88.1618 59.7317 88.8227 58.1223 89.5489 58.0574C90.275 57.9911 92.5867 57.63 92.7527 57.9587C92.9172 58.2873 92.7527 59.4694 92.2578 59.8968C91.7628 60.3242 88.6908 61.014 88.6908 61.014L88.1618 59.7317Z" fill="#E49963"/>
<path d="M83.7057 82.5954L77.7322 98.5851C77.7322 98.5851 76.8149 98.6736 75.9347 98.4215C75.1256 98.1901 74.1979 97.58 74.1979 97.58C74.1979 97.58 75.6798 82.227 78.3961 79.0332C81.1124 75.8394 83.7057 82.5954 83.7057 82.5954Z" fill="#DBA721"/>
<path d="M60.077 76.1267C60.077 76.1267 77.2432 70.3537 81.0709 71.5814C84.8986 72.8091 96.3936 95.5548 96.3936 95.5548C96.3936 95.5548 96.1343 95.8982 95.4259 96.162C94.768 96.4082 93.1735 96.392 93.1735 96.392C93.1735 96.392 82.8003 87.5489 81.5644 84.9697C80.33 82.3905 79.835 79.9336 78.6006 80.1797C77.3662 80.4259 62.6703 86.1974 59.3346 82.759C56.0004 79.3205 56.8717 74.8518 56.8717 74.8518L60.077 76.1267Z" fill="#EBBE3F"/>
<path d="M70.5672 49.2704C70.8414 48.7074 71.1481 47.7081 71.2978 45.9248C71.2741 46.1017 70.9658 48.3493 70.096 49.6227C66.5261 51.9543 59.6828 59.7376 59.8191 61.2129C59.8191 61.2129 57.4081 57.1466 57.3681 57.123C57.3681 57.123 52.9224 51.5003 58.192 48.2785C60.8698 46.6411 60.8564 44.5409 60.7453 42.7162C60.6327 40.8916 61.4759 33.0346 66.8403 35.0906C66.8403 35.0906 67.7013 34.7103 68.0865 34.7678C68.0865 34.7678 67.7709 34.8283 67.6109 34.9918C68.2333 34.955 69.1224 35.0007 69.8633 35.4207C71.8313 36.5305 73.5903 46.5025 70.5672 49.2704Z" fill="#163560"/>
<path d="M69.8857 49.7391C69.9035 49.7464 68.1622 50.6469 66.8523 50.2903C65.6193 49.9557 64.8147 48.3669 64.8324 48.364C65.3541 48.2608 65.5052 47.5475 65.4934 44.4833L65.729 44.529L69.696 45.3102C69.696 45.3102 69.6056 46.5511 69.6026 47.7214C69.5997 48.7029 69.6604 49.6329 69.8857 49.7391Z" fill="#E49963"/>
<path d="M69.6962 45.3087C69.6962 45.3087 69.6058 46.5497 69.6028 47.7199C67.383 47.658 66.2093 45.6433 65.7292 44.5276L69.6962 45.3087Z" fill="#D68D5D"/>
<path d="M65.3202 44.0987C65.3202 44.0987 64.1569 42.2711 63.8783 40.7074C63.6798 39.5917 64.2503 35.4546 68.4292 36.0515C68.4292 36.0515 69.6429 36.1709 70.7839 36.9373C71.6909 37.5475 73.0008 38.8622 71.5367 42.4716L71.1559 43.6904L65.3202 44.0987Z" fill="#163560"/>
<path d="M70.4369 46.417C70.4369 46.417 65.1851 46.5025 65.1821 43.2497C65.1792 39.9955 64.499 37.8157 67.851 37.6241C71.2045 37.431 71.8565 38.672 72.1233 39.7582C72.39 40.8429 71.8032 46.3109 70.4369 46.417Z" fill="#E49963"/>
<path d="M70.2427 37.543C70.2427 37.543 68.8053 41.3603 66.5973 41.9248C64.3908 42.4893 63.4335 41.9012 63.4335 41.9012C63.4335 41.9012 63.6469 40.5644 63.9981 38.2299C63.9981 38.2299 69.158 35.7273 70.2427 37.543Z" fill="#163560"/>
<path d="M69.8857 37.854C69.8857 37.854 70.9601 38.7059 71.2209 39.5342C71.4832 40.3625 71.6003 42.0677 72.0997 42.0103C72.0997 42.0103 73.183 39.4163 71.9648 37.9484C70.6756 36.392 69.8857 37.854 69.8857 37.854Z" fill="#163560"/>
<path d="M58.1924 63.7906C57.6752 61.63 59.4371 57.4384 61.2762 53.9675C62.9448 50.8223 64.6771 48.2711 64.8327 48.3625C69.2339 50.9609 69.6325 48.8002 69.6325 48.8002C69.6325 48.8002 73.6306 49.3279 74.7628 51.2674C76.3291 53.9483 78.0333 61.9911 79.7093 61.8717C80.4784 61.8172 88.2183 58.924 88.2183 58.924C88.2183 58.924 89.5075 60.1252 89.2601 61.599C89.2601 61.599 85.4383 64.1444 82.2078 65.7685C80.4992 66.6278 78.9536 67.2291 78.2274 67.0581C76.7559 66.7133 74.456 63.319 73.2127 61.3205C73.2098 61.3161 73.2068 61.3116 73.2038 61.3072C71.6182 70.2357 73.7744 72.2682 72.6822 73.21C71.5293 74.2048 69.8829 72.7369 66.2597 74.2977C63.8843 75.3234 60.5856 76.8047 58.3657 77.0626C57.201 77.1982 56.3326 76.9977 56.0496 76.2151C55.2271 73.9439 59.1793 67.9086 58.1924 63.7906Z" fill="#FF785B"/>
<path d="M69.2693 44.445C69.2693 44.445 69.3672 44.8577 70.4015 44.7943C70.4015 44.7943 71.2699 44.7412 71.2432 44.2873C71.2432 44.2858 70.4015 43.963 69.2693 44.445Z" fill="white"/>
<path d="M56.0508 76.2166C56.3338 76.9992 57.2022 77.1997 58.367 77.0641C59.9037 76.3979 66.541 73.8408 66.4655 72.1076C66.3558 69.5416 65.1896 69.4605 66.012 66.2933C66.6729 63.7509 60.5409 59.0228 59.5629 57.9955C57.7238 61.4664 57.6735 61.63 58.1906 63.7907C59.179 67.9086 55.2269 73.944 56.0508 76.2166Z" fill="#F25B3B"/>
<path d="M73.2128 61.3205C74.4546 63.3191 76.7545 66.7133 78.2275 67.0582C78.9536 67.2292 80.4977 66.6278 82.2078 65.7686C80.9601 66.0884 79.7479 66.0796 78.5713 65.9661C77.2954 65.8437 76.9249 64.2874 74.908 61.9543C73.5981 60.4407 73.2765 60.8209 73.2128 61.3205Z" fill="#3B76CA"/>
<path d="M67.0628 66.2328C67.0628 66.2328 68.1742 65.3736 69.2234 65.5784C70.2726 65.7833 70.7883 66.4996 70.7468 66.8268C70.7053 67.154 70.1496 68.0751 69.3464 68.1577C68.5432 68.2402 66.2581 67.6669 66.2581 67.6669L67.0628 66.2328Z" fill="#E49963"/>
<path d="M64.8324 48.3625C64.8324 48.3625 60.5528 48.6249 59.0709 50.6809C56.9844 53.574 51.9786 66.4436 54.3511 68.0884C57.0214 69.941 67.3739 68.0339 67.3739 68.0339C67.3739 68.0339 67.6895 66.5674 67.2509 65.857C66.8123 65.1481 59.6755 64.0014 59.3465 63.6728C59.0175 63.3456 63.4632 57.2852 63.4632 56.3036C63.4632 55.322 64.8324 48.3625 64.8324 48.3625Z" fill="#FF785B"/>
<path d="M88.5871 54.4392L91.5213 53.6566C91.622 53.6301 91.711 53.6536 91.7732 53.7067L91.7762 53.7052L92.1866 53.9513L91.8591 61.4871L89.0406 62.2388L88.8331 62.2225L88.3589 61.9337V61.9322C88.2922 61.888 88.2493 61.8143 88.2493 61.717V54.8637C88.2493 54.6794 88.4019 54.4878 88.5871 54.4392Z" fill="#233862"/>
<path d="M89.0404 62.2403L91.9745 61.4577C92.1598 61.4076 92.3124 61.216 92.3124 61.0317V54.1784C92.3124 53.9942 92.1598 53.8836 91.9745 53.9322L89.0404 54.7149C88.8551 54.765 88.7025 54.9566 88.7025 55.1408V61.9941C88.7025 62.1784 88.8551 62.2889 89.0404 62.2403Z" fill="#2B478B"/>
<path d="M91.2058 54.8282L91.8889 54.6248C91.9912 54.5939 92.0727 54.4863 92.0697 54.3831C92.0667 54.28 91.9808 54.221 91.8785 54.252L91.1954 54.4553C91.0931 54.4863 91.0116 54.5939 91.0146 54.697C91.0161 54.8002 91.1035 54.8592 91.2058 54.8282Z" fill="#233862"/>
<path d="M24.3645 0.148391C35.4164 1.44832 43.5134 10.9369 43.506 21.9421C48.9653 25.6989 54.3564 31.5014 55.5834 40.1292C55.5834 40.1292 47.765 36.7291 39.9525 34.0305C35.5616 40.8352 27.6454 44.9502 19.1572 43.9524C7.22649 42.5478 -1.28102 31.6045 0.157888 19.5087C1.5968 7.41295 12.4338 -1.2547 24.3645 0.148391Z" fill="#F2851C"/>
<path d="M24.0197 21.5122C22.1644 21.6891 20.2898 21.5668 18.4716 21.1541C17.5158 20.936 16.0057 20.6633 15.6841 19.5226C15.1166 17.5004 18.3827 16.4157 19.7801 16.3567C21.8354 16.2138 26.7079 15.9455 27.8652 18.4334C28.9129 20.681 25.4023 21.3811 24.0197 21.5122ZM24.0197 20.7134C24.3161 20.6839 24.7681 20.6559 25.2364 20.5793C23.6597 19.7569 20.2898 19.5167 18.7709 20.401C20.4929 20.7812 22.2667 20.8859 24.0197 20.7134ZM25.0986 17.4857C23.4744 16.9758 21.4531 17.0377 19.7816 17.1541C18.9043 17.1909 17.7469 17.4091 17.1364 18.1445C16.3925 19.0406 17.0534 19.7142 17.8551 20.0959C18.9072 19.0907 20.7878 19.1453 22.1422 19.1718C23.5959 19.2013 25.0986 19.3398 26.25 20.3037C26.6575 20.1268 26.9746 19.8674 27.0547 19.4724C27.2918 18.2919 25.9492 17.7525 25.0986 17.4857Z" fill="white"/>
<path d="M4.98796 22.9683C4.98055 22.902 4.98796 22.8445 5.00574 22.7959C5.01315 22.342 5.03834 21.8807 5.10058 21.4046C5.45327 18.7296 6.90552 16.5572 9.42028 14.9477C10.748 14.0988 12.2922 13.6213 13.7859 13.16L14.0838 13.0686C15.8813 12.5115 17.4254 12.2034 18.9444 12.1017C19.915 12.0354 20.8975 12.003 21.8622 12.003C24.5192 12.003 26.9984 12.2462 29.2316 12.7252C31.5033 13.213 34.596 14.3759 36.4306 17.1452C37.8458 19.2823 38.3793 22.1415 37.8962 24.989C37.3197 28.3759 35.4348 30.7252 32.2932 31.972C29.5428 33.0641 26.2886 33.6389 22.3438 33.7259C22.0948 33.7288 21.8459 33.7318 21.5969 33.7318C19.3815 33.7318 16.477 33.6006 13.66 32.5763C11.3897 31.751 8.81715 30.8165 7.04926 28.8092C5.71853 27.2985 5.03242 25.3501 5.00722 23.1187C4.99981 23.0671 4.99241 23.0126 4.98796 22.9683ZM36.5255 19.0111C35.497 16.5409 33.2505 14.6898 30.1993 13.7967C27.5245 13.014 24.6896 12.905 21.5288 12.8519C21.3954 12.849 21.2635 12.849 21.1301 12.849C18.3827 12.849 15.7124 13.3235 12.7293 14.3434C10.7421 15.0229 7.25969 16.6323 6.25645 19.7893C5.9749 20.6721 5.80596 21.6448 5.76595 22.5896C5.75706 22.6927 5.75706 22.8003 5.75409 22.9079C5.76002 22.9286 5.7704 22.9462 5.77336 22.9698C5.80448 23.244 6.02232 24.4923 6.28609 24.594C6.72473 24.7635 7.07297 24.0708 7.50124 24.0737C7.92506 24.0767 7.97248 24.0384 8.29553 24.3552C8.67193 24.7237 8.78455 25.577 8.92829 26.0472C9.18614 26.8843 9.25579 28.056 10.0012 27.0258C10.5317 26.2919 10.8251 24.9286 11.9543 25.6021C12.6197 25.9986 12.8553 27.1776 13.6629 27.2852C14.3253 27.3737 15.4753 26.7045 16.1214 26.5527C17.3335 26.2668 17.9278 26.1916 18.3516 27.468C18.7962 28.8048 19.3623 31.0288 21.0071 29.4547C21.6725 28.818 22.2267 27.9941 22.9855 27.465C24.1147 26.678 24.8452 27.2808 25.7744 28.1106C26.5968 28.8445 27.0103 28.7532 28.0372 28.2815C28.2536 28.1828 28.3736 27.9529 28.6329 27.8969C29.0908 27.7981 29.3531 27.944 29.6732 28.2506C30.1785 28.734 29.9459 29.3648 30.7105 29.3309C31.3848 29.3014 31.4367 28.4879 31.5848 27.9028C31.733 27.3162 31.7538 26.5616 32.1065 26.0516C32.4251 25.5903 33.0252 25.2734 33.5839 25.4282C34.0092 25.5461 34.1085 25.9411 34.4167 26.1843C35.5089 27.0435 36.5936 26.7429 37.0041 25.3029C37.0071 25.2926 37.0145 25.2867 37.0174 25.2764C37.053 25.1054 37.0989 24.9389 37.1271 24.765L37.213 24.1312C37.4101 22.3317 37.173 20.563 36.5255 19.0111ZM13.4006 31.6242C15.7242 32.5247 18.2686 32.9256 21.6518 32.9256C21.8726 32.9256 22.0934 32.9241 22.3142 32.9212C27.2251 32.8136 33.8655 32.1283 36.2024 27.6773C35.7623 27.9057 35.2614 27.9411 34.7383 27.6301C34.393 27.4252 34.1811 26.9094 33.8625 26.7487C32.5244 26.0782 32.6103 26.9875 32.4354 27.7288C32.2591 28.4761 32.0976 29.4473 31.5834 30.056C30.1593 31.7465 29.8303 29.0863 28.8404 28.9949C28.2002 28.9359 27.7779 29.7082 27.0577 29.7215C25.8307 29.7465 25.4735 28.4363 24.5088 28.0221C22.7632 27.2749 21.7837 30.8784 20.0899 31.0081C17.7974 31.185 18.2494 27.3073 16.5304 27.269C15.0796 27.2366 13.8808 28.7723 12.5945 27.6168C12.3174 27.3678 12.0417 26.5527 11.7379 26.4805C11.0029 26.3051 10.8799 27.1378 10.5999 27.5888C10.3687 27.9602 10.0501 28.5866 9.52401 28.5689C9.03351 28.5527 8.83345 28.0649 8.64822 27.6876C8.4289 27.241 8.09844 24.9418 7.6761 24.8254C7.13521 24.6765 6.73066 25.6684 6.07715 25.4473C6.28906 26.2137 6.6047 26.8961 7.02111 27.4842C8.51929 29.6109 10.7021 30.5793 13.4006 31.6242Z" fill="white"/>
<path d="M30.6498 23.1187C30.1637 23.2646 29.9548 22.4952 30.4409 22.3493C32.0472 21.8659 33.5632 20.9477 34.1337 19.266C34.2967 18.7826 35.0584 18.9904 34.8924 19.4783C34.2271 21.4385 32.5392 22.5512 30.6498 23.1187Z" fill="white"/>
<path d="M28.9265 23.5121C28.4197 23.5121 28.4197 22.7133 28.9265 22.7133C29.4333 22.7133 29.4333 23.5121 28.9265 23.5121Z" fill="white"/>
</svg>
